<svg width="116" height="18" viewBox="0 0 116 18" fill="none" xmlns="http://www.w3.org/2000/svg">
<path d="M50.8484 18C48.9997 18 47.2456 17.1599 46.0707 15.6282L37.4892 4.44681C36.683 3.39551 35.5034 3.31196 34.6688 3.58813C33.8343 3.86198 32.9431 4.62319 32.9431 5.94138V10.859C32.9431 14.6094 29.8344 17.6588 26.0164 17.6588H8.82028C3.95742 17.6588 0 13.7762 0 9.00013C0 4.22634 3.95506 0.343725 8.81792 0.341405L21.2032 0.339082C22.5909 0.339082 23.8982 0.870534 24.8793 1.83365C25.8627 2.79676 26.4041 4.08013 26.4041 5.44473C26.4041 6.80934 25.8627 8.09271 24.8793 9.05582C23.8982 10.0189 22.5933 10.5504 21.2056 10.5504C21.2032 10.5504 21.2032 10.5504 21.2008 10.5504L6.94086 10.5434L6.94322 7.09479L21.2032 7.10175C21.2032 7.10175 21.2032 7.10175 21.2056 7.10175C21.6547 7.10175 22.0779 6.93001 22.397 6.61671C22.7162 6.30341 22.8911 5.888 22.8911 5.44473C22.8911 5.00147 22.7162 4.58606 22.397 4.27276C22.0779 3.95946 21.6547 3.78772 21.2032 3.78772L8.81792 3.79004C5.89359 3.79004 3.51298 6.12704 3.51298 9.00013C3.51298 11.8732 5.89358 14.2102 8.82028 14.2102H26.0164C27.8982 14.2102 29.4301 12.7064 29.4301 10.859V5.94138C29.4301 3.3491 31.0495 1.14206 33.553 0.318196C36.0565 -0.505671 38.7019 0.301947 40.2929 2.37438L48.8744 13.5558C49.6806 14.6071 50.8579 14.6883 51.6948 14.4144C52.5293 14.1406 53.4205 13.3794 53.4205 12.0612V5.10126C53.4205 2.47649 55.5954 0.341405 58.2692 0.341405H80.0327C83.522 0.341405 86.3612 3.12863 86.3612 6.55638V11.4462C86.3612 14.8716 83.522 17.6588 80.0327 17.6588H65.385C62.4181 17.6588 60.0044 15.2894 60.0044 12.3791C60.0044 9.46892 62.4181 7.09711 65.385 7.09711H79.4818V10.5457H65.385C64.3566 10.5457 63.5174 11.3673 63.5174 12.3791C63.5174 13.391 64.3543 14.2102 65.385 14.2102H80.0327C81.5858 14.2102 82.8483 12.9709 82.8483 11.4462V6.55638C82.8483 5.03164 81.5858 3.79236 80.0327 3.79236H58.2692C57.534 3.79236 56.9335 4.37951 56.9335 5.10358V12.0635C56.9335 14.6558 55.3141 16.8628 52.8106 17.6867C52.1581 17.8979 51.4985 18 50.8484 18Z" fill="#024248"/>
<path d="M93.3118 17.2919H89.7988V6.30548C89.7988 2.82899 92.6806 0 96.222 0H110.801C113.669 0 116 2.29058 116 5.10333C116 6.46793 115.458 7.74898 114.475 8.71209C113.494 9.67521 112.189 10.2067 110.801 10.2067H110.799L96.6829 10.1997L96.6853 6.75106L110.801 6.75803C111.253 6.75803 111.673 6.58629 111.993 6.27299C112.312 5.95969 112.487 5.54427 112.487 5.10333C112.487 4.19127 111.73 3.44863 110.801 3.44863H96.222C94.6168 3.44863 93.3118 4.72969 93.3118 6.30548V17.2919Z" fill="#024248"/>
</svg>
